<svg aria-hidden="true" style="position: absolute; width: 0; height: 0; overflow: hidden;" version="1.1" xmlns="http://www.w3.org/2000/svg" xmlns:xlink="http://www.w3.org/1999/xlink">
<defs>
<symbol id="icon-envelop" viewBox="0 0 32 32">
<title>envelop</title>
<path d="M29 4h-26c-1.65 0-3 1.35-3 3v20c0 1.65 1.35 3 3 3h26c1.65 0 3-1.35 3-3v-20c0-1.65-1.35-3-3-3zM12.461 17.199l-8.461 6.59v-15.676l8.461 9.086zM5.512 8h20.976l-10.488 7.875-10.488-7.875zM12.79 17.553l3.21 3.447 3.21-3.447 6.58 8.447h-19.579l6.58-8.447zM19.539 17.199l8.461-9.086v15.676l-8.461-6.59z"></path>
</symbol>
<symbol id="icon-user" viewBox="0 0 32 32">
<title>user</title>
<path d="M18 22.082v-1.649c2.203-1.241 4-4.337 4-7.432 0-4.971 0-9-6-9s-6 4.029-6 9c0 3.096 1.797 6.191 4 7.432v1.649c-6.784 0.555-12 3.888-12 7.918h28c0-4.030-5.216-7.364-12-7.918z"></path>
</symbol>
<symbol id="icon-search" viewBox="0 0 32 32">
<title>search</title>
<path d="M31.008 27.231l-7.58-6.447c-0.784-0.705-1.622-1.029-2.299-0.998 1.789-2.096 2.87-4.815 2.87-7.787 0-6.627-5.373-12-12-12s-12 5.373-12 12 5.373 12 12 12c2.972 0 5.691-1.081 7.787-2.87-0.031 0.677 0.293 1.515 0.998 2.299l6.447 7.58c1.104 1.226 2.907 1.33 4.007 0.23s0.997-2.903-0.23-4.007zM12 20c-4.418 0-8-3.582-8-8s3.582-8 8-8 8 3.582 8 8-3.582 8-8 8z"></path>
</symbol>
<symbol id="icon-key" viewBox="0 0 32 32">
<title>key</title>
<path d="M22 0c-5.523 0-10 4.477-10 10 0 0.626 0.058 1.238 0.168 1.832l-12.168 12.168v6c0 1.105 0.895 2 2 2h2v-2h4v-4h4v-4h4l2.595-2.595c1.063 0.385 2.209 0.595 3.405 0.595 5.523 0 10-4.477 10-10s-4.477-10-10-10zM24.996 10.004c-1.657 0-3-1.343-3-3s1.343-3 3-3 3 1.343 3 3-1.343 3-3 3z"></path>
</symbol>
<symbol id="icon-heart" viewBox="0 0 32 32">
<title>heart</title>
<path d="M23.6 2c-3.363 0-6.258 2.736-7.599 5.594-1.342-2.858-4.237-5.594-7.601-5.594-4.637 0-8.4 3.764-8.4 8.401 0 9.433 9.516 11.906 16.001 21.232 6.13-9.268 15.999-12.1 15.999-21.232 0-4.637-3.763-8.401-8.4-8.401z"></path>
</symbol>
<symbol id="icon-exit" viewBox="0 0 32 32">
<title>exit</title>
<path d="M24 20v-4h-10v-4h10v-4l6 6zM22 18v8h-10v6l-12-6v-26h22v10h-2v-8h-16l8 4v18h8v-6z"></path>
</symbol>

<symbol id="tmdb-logo" viewBox="0 0 408 161">
<title>PoweredByRectangle_Blue</title><polygon class="cls-1" points="50.38 102.47 57.32 102.47 57.32 74.71 65.96 74.71 65.96 67.82 41.74 67.82 41.74 74.71 50.38 74.71 50.38 102.47"/><polygon class="cls-1" points="88.53 102.47 95.47 102.47 95.47 67.77 88.53 67.77 88.53 81.65 78.14 81.65 78.14 67.77 71.2 67.77 71.2 102.47 78.14 102.47 78.14 88.59 88.53 88.59 88.53 102.47"/><polygon class="cls-1" points="121.25 95.53 108.23 95.53 108.23 88.59 119.35 88.59 119.35 81.65 108.23 81.65 108.23 74.71 120.66 74.71 120.66 67.77 101.28 67.77 101.28 102.47 121.25 102.47 121.25 95.53"/><polygon class="cls-1" points="157.79 82.54 144.1 67.3 141.87 67.3 141.87 102.54 148.9 102.54 148.9 83.17 157.79 92.49 166.67 83.17 166.62 102.54 173.66 102.54 173.66 67.3 171.47 67.3 157.79 82.54"/><path class="cls-1" d="M3309.1,1841.93c-23.88,0-23.88,35.77,0,35.77S3333,1841.93,3309.1,1841.93Zm0,28.59c-13.88,0-13.88-21.45,0-21.45S3323,1870.52,3309.1,1870.52Z" transform="translate(-3111.93 -1774.68)"/><rect class="cls-1" x="254.5" y="67.83" width="6.94" height="34.7"/><polygon class="cls-1" points="274.19 95.6 274.19 88.66 285.32 88.66 285.32 81.72 274.19 81.72 274.19 74.78 286.63 74.78 286.63 67.83 267.25 67.83 267.25 102.54 287.21 102.54 287.21 95.6 274.19 95.6"/><path class="cls-1" d="M3429.48,1842.91h-10.34v34.7h10.34C3452.58,1877.61,3452.58,1842.91,3429.48,1842.91Zm0,27.76h-3.4v-20.82h3.4C3443,1849.85,3443,1870.67,3429.48,1870.67Z" transform="translate(-3111.93 -1774.68)"/><path class="cls-1" d="M3472.7,1860.23c2.18-1.5,3.11-4.22,3.2-6.84,0.15-6.12-3.69-10.53-9.85-10.53h-13.74v34.75H3466a10.32,10.32,0,0,0,10.24-10.44A8.43,8.43,0,0,0,3472.7,1860.23Zm-13.4-10.44h6.17a3.51,3.51,0,0,1,0,7h-6.17v-7Zm6.17,20.87h-6.17v-6.94h6.17a3.41,3.41,0,0,1,3.49,3.45A3.45,3.45,0,0,1,3465.47,1870.67Z" transform="translate(-3111.93 -1774.68)"/><polygon class="cls-1" points="233.13 86.57 224 67.83 215.99 67.83 232.36 103.27 233.91 103.27 250.28 67.83 242.27 67.83 233.13 86.57"/><path class="cls-1" d="M3494.78,1920.93c14.6,0,24.48-9.88,24.48-24.48v-97.28c0-14.6-9.88-24.48-24.48-24.48H3136.41c-14.6,0-24.48,9.88-24.48,24.48V1935.5l12.56-14.56h0V1799.17a11.94,11.94,0,0,1,11.92-11.92h358.37a11.94,11.94,0,0,1,11.92,11.92v97.28a11.94,11.94,0,0,1-11.92,11.92H3155l-12.56,12.56-0.08-.1Z" transform="translate(-3111.93 -1774.68)"/><path class="cls-1" d="M3154.3,1827.53v-15h5.9c5.84,0,5.82,9.26,0,9.26h-2.9v5.73h-3Zm5.65-8.65c2,0,2-3.36,0-3.36h-2.65v3.36h2.65Z" transform="translate(-3111.93 -1774.68)"/><path class="cls-1" d="M3176.07,1812.27c10.33,0,10.33,15.47,0,15.47S3165.74,1812.27,3176.07,1812.27Zm0,3.09c-6,0-6,9.28,0,9.28S3182.08,1815.35,3176.07,1815.35Z" transform="translate(-3111.93 -1774.68)"/><path class="cls-1" d="M3193.12,1827.85l-6.15-15.33h3.38l3,7.66,2.94-7.52h0.15l2.94,7.52,3-7.66h3.38l-6.13,15.26h-0.55l-2.75-6.66-2.73,6.72h-0.52Z" transform="translate(-3111.93 -1774.68)"/><path class="cls-1" d="M3209.53,1827.53v-15H3217v3h-4.51v3h3.95v3h-3.95v3h4.77v3h-7.77Z" transform="translate(-3111.93 -1774.68)"/><path class="cls-1" d="M3229.47,1827.53l-3-5.73H3225v5.73h-3v-15h5.92c5.35,0,5.88,7.54,1.47,8.82l3.49,6.19h-3.4Zm-4.47-8.65h2.65c2,0,2-3.36,0-3.36H3225v3.36Z" transform="translate(-3111.93 -1774.68)"/><path class="cls-1" d="M3236.76,1827.53v-15h7.52v3h-4.51v3h3.95v3h-3.95v3h4.77v3h-7.77Z" transform="translate(-3111.93 -1774.68)"/><path class="cls-1" d="M3253.71,1827.53h-4.47v-15h4.47C3263.7,1812.52,3263.7,1827.53,3253.71,1827.53Zm-1.47-12v9h1.47c5.84,0,5.84-9,0-9h-1.47Z" transform="translate(-3111.93 -1774.68)"/><path class="cls-1" d="M3291.89,1820.77l-5.23-8.25h3.65l3.07,5.17,3.07-5.17h3.67l-5.25,8.25v6.76h-3v-6.76Z" transform="translate(-3111.93 -1774.68)"/><path class="cls-1" d="M3282.58,1820.18a3.68,3.68,0,0,0,1.39-3,4.13,4.13,0,0,0-4.26-4.56h-5.94v15h5.94a4.46,4.46,0,0,0,4.43-4.51A3.65,3.65,0,0,0,3282.58,1820.18Zm-5.79-4.51h2.67a1.52,1.52,0,0,1,0,3h-2.67v-3Zm2.67,9h-2.67v-3h2.67a1.47,1.47,0,0,1,1.51,1.49A1.49,1.49,0,0,1,3279.45,1824.7Z" transform="translate(-3111.93 -1774.68)"/>
</symbol>
</defs>
</svg>
